<?xml version="1.0" encoding="iso-8859-1"?>
<!-- Generator: Adobe Illustrator 18.0.0, SVG Export Plug-In . SVG Version: 6.00 Build 0)  -->
<!DOCTYPE svg PUBLIC "-//W3C//DTD SVG 1.1//EN" "http://www.w3.org/Graphics/SVG/1.1/DTD/svg11.dtd">
<svg version="1.1" id="Capa_1" xmlns="http://www.w3.org/2000/svg" xmlns:xlink="http://www.w3.org/1999/xlink" x="0px" y="0px"
	 viewBox="0 0 297 297" style="enable-background:new 0 0 297 297;" xml:space="preserve">
<g>
	<path d="M123.219,232.159H35.462l30.489-53.067l4.7,17.236c1.576,5.782,6.816,9.583,12.534,9.583c1.132,0,2.283-0.148,3.428-0.461
		c6.927-1.889,11.011-9.035,9.122-15.962L82.724,141.77c-0.908-3.329-3.103-6.161-6.1-7.871c-2.998-1.711-6.554-2.159-9.879-1.246
		L19.187,145.69c-6.925,1.897-10.999,9.05-9.101,15.974c1.898,6.925,9.053,11,15.974,9.101l17.435-4.779L1.727,238.682
		c-2.311,4.023-2.303,8.973,0.02,12.988c2.324,4.016,6.612,6.488,11.252,6.488h110.219c7.18,0,13-5.82,13-13
		C136.219,237.979,130.398,232.159,123.219,232.159z"/>
	<path d="M295.3,238.731l-53.117-93.374c-3.551-6.241-11.489-8.424-17.728-4.872c-6.241,3.55-8.422,11.487-4.872,17.728
		l42.065,73.946h-57.486l12.627-12.689c5.064-5.09,5.044-13.321-0.045-18.385c-5.09-5.064-13.32-5.045-18.385,0.045l-34.814,34.988
		c-5.043,5.067-5.047,13.255-0.012,18.328l34.814,35.071c2.542,2.56,5.884,3.842,9.227,3.842c3.312,0,6.623-1.257,9.158-3.773
		c5.096-5.059,5.126-13.29,0.068-18.385l-12.946-13.042H284c4.63,0,8.91-2.462,11.237-6.464
		C297.565,247.693,297.589,242.754,295.3,238.731z"/>
	<path d="M205.227,122.953c2.149,0,4.286-0.533,6.21-1.579c3.031-1.648,5.283-4.435,6.26-7.745l14.001-47.493
		c2.03-6.887-1.907-14.115-8.794-16.146c-6.884-2.028-14.114,1.906-16.146,8.794l-5.64,19.13L159.599,9.87
		c-2.36-3.869-6.565-6.228-11.097-6.228c-0.006,0-0.012,0-0.018,0c-4.538,0.006-8.744,2.378-11.098,6.258L85.136,96.044
		c-3.724,6.139-1.766,14.134,4.373,17.857c6.14,3.724,14.134,1.765,17.857-4.373l41.169-67.875l28.261,46.313l-15.099-4.475
		c-6.882-2.039-14.118,1.885-16.158,8.77c-2.04,6.884,1.886,14.118,8.77,16.158l47.225,13.997
		C202.743,122.775,203.987,122.953,205.227,122.953z"/>
</g>
<g>
</g>
<g>
</g>
<g>
</g>
<g>
</g>
<g>
</g>
<g>
</g>
<g>
</g>
<g>
</g>
<g>
</g>
<g>
</g>
<g>
</g>
<g>
</g>
<g>
</g>
<g>
</g>
<g>
</g>
</svg>
